<?xml version="1.0" standalone="no"?>
<!DOCTYPE svg PUBLIC "-//W3C//DTD SVG 20010904//EN"
 "http://www.w3.org/TR/2001/REC-SVG-20010904/DTD/svg10.dtd">
<svg version="1.0" xmlns="http://www.w3.org/2000/svg"
 width="88.000000pt" height="88.000000pt" viewBox="0 0 88.000000 88.000000"
 preserveAspectRatio="xMidYMid meet">
<metadata>
Created by potrace 1.11, written by Peter Selinger 2001-2013
</metadata>
<g transform="translate(0.000000,88.000000) scale(0.100000,-0.100000)"
fill="#000000" stroke="none">
<path d="M417 810 c4 -16 8 -18 19 -9 16 13 10 29 -11 29 -8 0 -11 -7 -8 -20z"/>
<path d="M466 763 c16 -21 32 -42 38 -48 9 -9 3 1 -35 63 -8 12 -17 22 -22 22
-4 0 4 -17 19 -37z"/>
<path d="M601 786 c-9 -10 -8 -16 4 -26 8 -7 15 -9 15 -5 0 4 6 2 13 -4 8 -6
16 -8 19 -6 10 10 109 -88 129 -126 11 -22 22 -39 24 -39 3 0 -3 17 -14 38
-19 37 -123 142 -141 142 -5 0 -12 9 -15 20 -7 23 -18 25 -34 6z"/>
<path d="M235 728 c-11 -6 -24 -17 -30 -24 -5 -7 -19 -14 -30 -17 -18 -4 -18
-5 3 -6 12 0 22 -7 22 -15 0 -46 73 -61 107 -22 18 21 19 26 7 55 -7 17 -17
31 -23 31 -5 0 -15 2 -23 5 -7 2 -22 -1 -33 -7z"/>
<path d="M682 675 c12 -24 23 -43 26 -41 4 5 -36 86 -43 86 -3 0 5 -20 17 -45z"/>
<path d="M32 691 c-11 -6 -9 -9 5 -13 12 -3 20 0 20 8 0 16 -6 17 -25 5z"/>
<path d="M510 695 c0 -5 5 -17 10 -25 5 -8 10 -10 10 -5 0 6 -5 17 -10 25 -5
8 -10 11 -10 5z"/>
<path d="M108 683 c6 -2 18 -2 25 0 6 3 1 5 -13 5 -14 0 -19 -2 -12 -5z"/>
<path d="M531 634 c0 -11 3 -14 6 -6 3 7 2 16 -1 19 -3 4 -6 -2 -5 -13z"/>
<path d="M450 610 c30 -16 60 -29 65 -29 6 0 -15 13 -45 29 -30 16 -59 29 -65
29 -5 0 15 -13 45 -29z"/>
<path d="M722 565 c0 -16 2 -22 5 -12 2 9 2 23 0 30 -3 6 -5 -1 -5 -18z"/>
<path d="M288 564 c46 -32 55 -68 59 -239 3 -88 9 -173 15 -188 11 -27 54 -58
80 -56 7 0 3 5 -9 11 -35 17 -42 53 -45 228 -3 154 -5 167 -26 198 -13 18 -36
39 -52 47 -38 20 -50 19 -22 -1z"/>
<path d="M527 573 c-15 -14 -7 -43 12 -43 24 0 33 13 25 34 -6 16 -25 21 -37
9z"/>
<path d="M463 553 c9 -2 23 -2 30 0 6 3 -1 5 -18 5 -16 0 -22 -2 -12 -5z"/>
<path d="M385 540 c-3 -5 3 -10 14 -10 12 0 21 5 21 10 0 6 -6 10 -14 10 -8 0
-18 -4 -21 -10z"/>
<path d="M628 543 c6 -2 18 -2 25 0 6 3 1 5 -13 5 -14 0 -19 -2 -12 -5z"/>
<path d="M678 533 c6 -2 18 -2 25 0 6 3 1 5 -13 5 -14 0 -19 -2 -12 -5z"/>
<path d="M815 508 c-5 -25 -20 -49 -46 -73 -22 -19 -35 -35 -31 -35 4 0 23 16
42 35 38 39 50 43 51 18 0 -10 5 -3 11 16 5 20 6 36 0 40 -5 3 -11 13 -14 21
-3 9 -9 -1 -13 -22z"/>
<path d="M610 495 c19 -22 43 -51 53 -65 18 -24 18 -24 0 6 -25 42 -45 67 -68
84 -11 8 -4 -3 15 -25z"/>
<path d="M740 520 c34 -11 60 -11 35 0 -11 5 -29 8 -40 8 -16 0 -15 -2 5 -8z"/>
<path d="M560 505 c0 -5 5 -17 10 -25 5 -8 10 -10 10 -5 0 6 -5 17 -10 25 -5
8 -10 11 -10 5z"/>
<path d="M526 465 c-4 -20 -11 -33 -17 -30 -5 4 -9 -6 -9 -20 0 -22 2 -24 14
-13 7 8 17 33 21 56 8 51 0 57 -9 7z"/>
<path d="M722 470 c0 -19 2 -27 5 -17 2 9 2 25 0 35 -3 9 -5 1 -5 -18z"/>
<path d="M582 450 c0 -8 4 -26 8 -40 6 -20 8 -21 8 -5 0 11 -3 29 -8 40 -5 12
-8 14 -8 5z"/>
<path d="M832 400 c0 -19 2 -27 5 -17 2 9 2 25 0 35 -3 9 -5 1 -5 -18z"/>
<path d="M677 393 c-3 -5 -2 -15 3 -22 10 -17 43 -6 38 12 -6 15 -34 22 -41
10z"/>
<path d="M601 352 c-1 -28 1 -31 13 -20 8 7 10 15 6 18 -4 3 -10 12 -13 20 -3
8 -6 0 -6 -18z"/>
<path d="M650 360 c-9 -6 -10 -10 -3 -10 6 0 15 5 18 10 8 12 4 12 -15 0z"/>
<path d="M821 344 c0 -11 3 -14 6 -6 3 7 2 16 -1 19 -3 4 -6 -2 -5 -13z"/>
<path d="M460 335 c0 -9 5 -15 11 -13 6 2 11 8 11 13 0 5 -5 11 -11 13 -6 2
-11 -4 -11 -13z"/>
<path d="M655 308 c-16 -24 -22 -38 -14 -31 15 12 53 73 46 73 -2 0 -17 -19
-32 -42z"/>
<path d="M706 325 c8 -37 14 -45 14 -19 0 10 -5 26 -10 34 -8 11 -9 7 -4 -15z"/>
<path d="M528 333 c12 -2 32 -2 45 0 12 2 2 4 -23 4 -25 0 -35 -2 -22 -4z"/>
<path d="M806 305 c-9 -26 -7 -32 5 -12 6 10 9 21 6 23 -2 3 -7 -2 -11 -11z"/>
<path d="M723 230 c0 -30 2 -43 4 -27 2 15 2 39 0 55 -2 15 -4 2 -4 -28z"/>
<path d="M775 257 c-19 -15 -13 -37 11 -37 8 0 14 10 14 25 0 29 0 29 -25 12z"/>
<path d="M593 248 c2 -7 10 -13 17 -13 7 0 15 6 18 13 2 7 -5 12 -18 12 -13 0
-20 -5 -17 -12z"/>
<path d="M515 189 c-27 -16 -46 -29 -42 -29 13 0 85 39 92 50 8 13 10 13 -50
-21z"/>
<path d="M596 205 c-3 -9 -6 -24 -5 -33 0 -9 5 -4 10 12 9 32 6 48 -5 21z"/>
<path d="M422 161 c-10 -6 -9 -10 7 -14 14 -3 21 0 21 9 0 16 -9 18 -28 5z"/>
<path d="M711 144 c0 -11 3 -14 6 -6 3 7 2 16 -1 19 -3 4 -6 -2 -5 -13z"/>
<path d="M570 124 c0 -14 3 -14 15 -4 8 7 15 14 15 16 0 2 -7 4 -15 4 -8 0
-15 -7 -15 -16z"/>
<path d="M680 69 c0 -18 2 -19 15 -9 15 12 12 30 -6 30 -5 0 -9 -10 -9 -21z"/>
</g>
</svg>
